<?xml version="1.0" encoding="UTF-8" standalone="no"?>
<!-- Created with Inkscape (http://www.inkscape.org/) -->

<svg
   xmlns:dc="http://purl.org/dc/elements/1.1/"
   xmlns:cc="http://creativecommons.org/ns#"
   xmlns:rdf="http://www.w3.org/1999/02/22-rdf-syntax-ns#"
   xmlns:svg="http://www.w3.org/2000/svg"
   xmlns="http://www.w3.org/2000/svg"
   xmlns:sodipodi="http://sodipodi.sourceforge.net/DTD/sodipodi-0.dtd"
   xmlns:inkscape="http://www.inkscape.org/namespaces/inkscape"
   width="32"
   height="22"
   viewBox="0 0 8.4666665 5.8208338"
   version="1.1"
   id="svg8"
   inkscape:version="0.92.5 (2060ec1f9f, 2020-04-08)"
   sodipodi:docname="menuButton.svg">
  <defs
     id="defs2" />
  <sodipodi:namedview
     id="base"
     pagecolor="#ffffff"
     bordercolor="#666666"
     borderopacity="1.0"
     inkscape:pageopacity="0.0"
     inkscape:pageshadow="2"
     inkscape:zoom="22.4"
     inkscape:cx="8.3597002"
     inkscape:cy="14.451704"
     inkscape:document-units="mm"
     inkscape:current-layer="layer1"
     showgrid="true"
     units="px"
     inkscape:window-width="1920"
     inkscape:window-height="1016"
     inkscape:window-x="0"
     inkscape:window-y="626"
     inkscape:window-maximized="1">
    <inkscape:grid
       type="xygrid"
       id="grid815" />
  </sodipodi:namedview>
  <metadata
     id="metadata5">
    <rdf:RDF>
      <cc:Work
         rdf:about="">
        <dc:format>image/svg+xml</dc:format>
        <dc:type
           rdf:resource="http://purl.org/dc/dcmitype/StillImage" />
        <dc:title></dc:title>
      </cc:Work>
    </rdf:RDF>
  </metadata>
  <g
     inkscape:label="Layer 1"
     inkscape:groupmode="layer"
     id="layer1"
     transform="translate(0,-291.17912)">
    <ellipse
       style="opacity:0.36460021;fill:#000000;fill-opacity:1;stroke-width:0.44514704"
       id="path817"
       cx="4.2227025"
       cy="292.37216"
       rx="3.700623"
       ry="0.64255947" />
    <ellipse
       style="opacity:0.36460021;fill:#000000;fill-opacity:1;stroke-width:0.44683108"
       id="path819"
       cx="4.2286086"
       cy="294.23486"
       rx="3.6947172"
       ry="0.64846534" />
    <ellipse
       style="opacity:0.36460021;fill:#000000;fill-opacity:1;stroke-width:0.44309661"
       id="path821"
       cx="4.222703"
       cy="296.05624"
       rx="3.700623"
       ry="0.6366536" />
    <path
       style="opacity:0.36460021;fill:#000000;fill-opacity:1;stroke-width:0.04464286"
       d="M 13.681143,20.789858 C 8.5731074,20.635922 4.4129492,20.028236 2.748321,19.19287 2.1890161,18.912192 2.0114859,18.722305 2.0114859,18.404744 c 0,-0.817044 2.7124254,-1.610703 6.9422809,-2.031321 4.0338402,-0.401125 9.1849782,-0.42725 13.3032552,-0.06747 4.062705,0.354926 6.841619,1.014064 7.516662,1.782895 0.483819,0.551039 -0.286412,1.158713 -2.062922,1.627545 -1.921804,0.507175 -4.710422,0.856048 -8.199276,1.02578 -1.327238,0.06457 -4.428418,0.08993 -5.830343,0.04768 z"
       id="path885"
       inkscape:connector-curvature="0"
       transform="matrix(0.26458333,0,0,0.26458333,0,291.17912)" />
    <path
       style="opacity:0.36460021;fill:#000000;fill-opacity:1;stroke-width:0.04464286"
       d="M 12.70345,20.743704 C 8.346665,20.524843 5.2421953,20.091279 3.4142075,19.446386 2.306816,19.055711 1.8734232,18.660771 2.0783063,18.229011 2.4895337,17.362414 6.0061036,16.56162 10.82845,16.236426 c 5.734619,-0.386712 12.259455,-0.08698 16.088964,0.739084 1.72624,0.372367 2.872257,0.89738 2.974448,1.362653 0.10525,0.479199 -0.751223,0.993265 -2.32234,1.393899 -1.770064,0.451364 -3.88417,0.731393 -7.165179,0.94908 -1.222778,0.08113 -6.480937,0.123845 -7.700893,0.06256 z"
       id="path887"
       inkscape:connector-curvature="0"
       transform="matrix(0.26458333,0,0,0.26458333,0,291.17912)" />
    <path
       style="opacity:0.36460021;fill:#000000;fill-opacity:1;stroke-width:0.04464286"
       d="M 11.632022,20.676909 C 7.2235484,20.384997 4.2806079,19.885421 2.8342341,19.183448 2.2821406,18.915499 2.0561288,18.695116 2.0561288,18.42472 c 0,-0.805219 2.4943258,-1.543635 6.7857143,-2.008829 2.0841609,-0.225927 3.6947949,-0.291703 7.1428569,-0.291703 3.162959,0 3.744798,0.01801 5.848215,0.181008 4.066563,0.315127 7.040418,0.978901 7.854266,1.753096 0.157609,0.149931 0.181448,0.197982 0.181448,0.365744 0,0.170683 -0.0234,0.215561 -0.201311,0.386025 -0.753027,0.721527 -3.420736,1.356345 -7.097796,1.68902 -2.175784,0.196849 -2.475127,0.207533 -6.272322,0.223869 -2.849334,0.01226 -3.948579,0.0014 -4.665178,-0.04604 z"
       id="path889"
       inkscape:connector-curvature="0"
       transform="matrix(0.26458333,0,0,0.26458333,0,291.17912)" />
    <path
       style="opacity:0.36460021;fill:#000000;fill-opacity:1;stroke-width:0.04464286"
       d="M 11.051665,20.630598 C 8.1384636,20.407392 6.0709708,20.127586 4.5848208,19.755403 2.9555485,19.347378 2.0561288,18.880725 2.0561288,18.44342 c 0,-0.78603 2.437864,-1.530331 6.4955357,-1.983142 2.4494625,-0.273346 3.9172145,-0.327533 8.1696425,-0.301613 3.539555,0.02158 3.844998,0.03348 6.026786,0.234883 3.582911,0.330743 6.290119,0.992928 6.939479,1.6974 0.241949,0.262484 0.242027,0.402126 3.57e-4,0.664291 -0.654728,0.710312 -3.17836,1.347825 -6.716622,1.696739 -2.211755,0.218105 -2.17055,0.216708 -6.741071,0.228705 -3.389568,0.0089 -4.555998,-0.0024 -5.178571,-0.05008 z"
       id="path891"
       inkscape:connector-curvature="0"
       transform="matrix(0.26458333,0,0,0.26458333,0,291.17912)" />
    <path
       style="opacity:0.36460021;fill:#000000;fill-opacity:1;stroke-width:0.04464286"
       d="M 12.011486,20.670709 C 10.912305,20.632525 8.6399051,20.424502 7.2250288,20.232541 3.8009901,19.767988 1.7434056,18.973189 2.1162761,18.259143 2.2462306,18.010281 2.50156,17.827125 3.0395294,17.596864 c 1.5926915,-0.6817 5.431486,-1.26407 9.2621356,-1.405124 1.526305,-0.0562 5.545017,-0.05649 7.209821,-5.17e-4 1.250869,0.04206 2.875115,0.159139 4.0625,0.292842 4.04258,0.455206 6.572265,1.295142 6.249257,2.074952 -0.420937,1.016234 -5.077353,1.967184 -10.267114,2.096787 -1.437176,0.03589 -6.644401,0.04618 -7.544643,0.0149 z"
       id="path893"
       inkscape:connector-curvature="0"
       transform="matrix(0.26458333,0,0,0.26458333,0,291.17912)" />
    <path
       style="opacity:0.36460021;fill:#000000;fill-opacity:1;stroke-width:0.04464286"
       d="M 14.288272,13.952265 C 8.6866069,13.849529 3.9566649,13.129017 2.4890876,12.154895 1.9152367,11.773994 1.9114538,11.325108 2.4789205,10.948445 3.7253346,10.121122 7.0332002,9.5160443 11.944522,9.2169881 c 1.277359,-0.07778 6.806638,-0.077319 8.102678,6.757e-4 5.231566,0.314831 8.690908,1.0003032 9.631697,1.9085292 0.210246,0.20297 0.234375,0.245732 0.234375,0.415381 0,1.140406 -4.49557,2.125126 -10.825893,2.371328 -1.630998,0.06343 -2.913229,0.07395 -4.799107,0.03936 z"
       id="path895"
       inkscape:connector-curvature="0"
       transform="matrix(0.26458333,0,0,0.26458333,0,291.17912)" />
    <path
       style="opacity:0.36460021;fill:#000000;fill-opacity:1;stroke-width:0.04464286"
       d="M 13.841843,13.932332 C 8.4931007,13.747426 4.6191938,13.188456 2.8820216,12.350929 0.72208218,11.309577 2.9528975,10.162443 8.3467485,9.5408479 9.4175904,9.4174425 11.052569,9.2826064 12.140799,9.2279539 c 1.160152,-0.058265 6.524099,-0.058127 7.726044,1.987e-4 3.323496,0.1612752 6.721354,0.6409831 8.372322,1.1820004 0.810273,0.265524 1.521318,0.697447 1.633381,0.992195 0.112957,0.2971 -0.178301,0.651287 -0.772549,0.939466 -1.550046,0.751689 -4.779235,1.280353 -9.342975,1.529578 -0.836102,0.04566 -5.089607,0.08948 -5.915179,0.06094 z"
       id="path897"
       inkscape:connector-curvature="0"
       transform="matrix(0.26458333,0,0,0.26458333,0,291.17912)" />
    <path
       style="opacity:0.36460021;fill:#000000;fill-opacity:1;stroke-width:0.04464286"
       d="m 12.948986,13.885257 c -0.110491,-0.0074 -0.612723,-0.03492 -1.116071,-0.06109 C 6.8376025,13.564466 3.080433,12.810978 2.2616475,11.90468 1.9997625,11.614805 2.0554751,11.301262 2.4169935,11.030416 3.4948014,10.22293 6.7700092,9.5941352 11.565057,9.274113 c 1.098466,-0.073312 5.172936,-0.1028981 7.165179,-0.052029 2.500439,0.063845 4.356004,0.2200646 6.445309,0.5426294 2.215889,0.3421076 3.436866,0.6901696 4.227062,1.2050026 0.351588,0.229068 0.466022,0.365517 0.466022,0.555677 0,0.442044 -0.677343,0.863251 -2.03532,1.26567 -1.730644,0.512852 -5.177304,0.949944 -8.500394,1.077984 -1.009623,0.0389 -5.863295,0.05123 -6.383929,0.01621 z"
       id="path899"
       inkscape:connector-curvature="0"
       transform="matrix(0.26458333,0,0,0.26458333,0,291.17912)" />
    <path
       style="opacity:0.36460021;fill:#000000;fill-opacity:1;stroke-width:0.04464286"
       d="M 13.239165,13.884718 C 8.2207712,13.689423 4.3683488,13.09384 2.7928704,12.269726 1.7636936,11.731376 1.8974811,11.168766 3.1810244,10.637442 4.6939591,10.011161 8.1339632,9.4706333 11.890285,9.2689571 c 1.17,-0.062817 8.083883,-0.030179 9.072094,0.042827 3.263126,0.2410677 6.219863,0.7179569 7.522321,1.2132689 0.448901,0.170712 0.957156,0.461747 1.178078,0.674586 0.203164,0.195731 0.216389,0.221778 0.191254,0.37667 -0.190385,1.173204 -5.118029,2.157498 -11.480939,2.293311 -1.754101,0.03744 -4.362691,0.04511 -5.133928,0.0151 z"
       id="path901"
       inkscape:connector-curvature="0"
       transform="matrix(0.26458333,0,0,0.26458333,0,291.17912)" />
    <path
       style="opacity:0.36460021;fill:#000000;fill-opacity:1;stroke-width:0.04464286"
       d="M 13.350772,13.866967 C 8.643898,13.751894 4.1731867,13.058836 2.6997606,12.215827 2.4360834,12.064967 2.1609963,11.782172 2.1203361,11.620169 2.0802369,11.460401 2.2210928,11.201722 2.431981,11.047839 3.4896862,10.27604 6.2117282,9.7243957 10.917736,9.3281298 c 0.810165,-0.068219 1.480188,-0.078598 4.933036,-0.076412 4.219826,0.00267 4.891443,0.024435 6.859418,0.222281 2.103253,0.211446 4.164834,0.5612292 5.273316,0.8947092 0.823599,0.247776 1.625973,0.679119 1.823198,0.980122 0.177153,0.270369 -0.107102,0.639352 -0.736218,0.955666 -1.369922,0.688783 -4.286688,1.203334 -8.375964,1.477617 -0.647852,0.04345 -4.960109,0.135968 -5.714286,0.122593 -0.171875,-0.003 -0.905134,-0.02003 -1.629464,-0.03774 z"
       id="path903"
       inkscape:connector-curvature="0"
       transform="matrix(0.26458333,0,0,0.26458333,0,291.17912)" />
    <path
       style="opacity:0.36460021;fill:#000000;fill-opacity:1;stroke-width:0.04464286"
       d="M 12.770415,6.856237 C 7.404506,6.6365759 3.1460712,5.8548733 2.2086587,4.9174607 2.0340554,4.7428575 2.0114859,4.697336 2.0114859,4.5197737 c 0,-0.1595414 0.027619,-0.2319704 0.1351621,-0.3544554 1.4051704,-1.6004006 11.309634,-2.5200609 19.753231,-1.834149 3.666344,0.2978338 6.479163,0.877371 7.534277,1.5523188 0.784469,0.5018189 0.607064,1.0302391 -0.507149,1.5106029 -1.741554,0.7508246 -5.328564,1.2785358 -9.973557,1.4672817 -1.235951,0.050222 -4.905196,0.047174 -6.183035,-0.00514 z"
       id="path905"
       inkscape:connector-curvature="0"
       transform="matrix(0.26458333,0,0,0.26458333,0,291.17912)" />
    <path
       style="opacity:0.36460021;fill:#000000;fill-opacity:1;stroke-width:0.04464286"
       d="M 12.457915,6.8322402 C 8.362552,6.6154165 5.2496811,6.1699575 3.4377301,5.5414309 2.8600425,5.3410436 2.5067409,5.1561089 2.2396585,4.9143035 2.0521767,4.7445653 2.0338074,4.7097312 2.0338074,4.5239446 c 0,-0.1805862 0.022244,-0.2266551 0.1938834,-0.4015427 C 3.7833639,2.5372865 13.848316,1.6587148 22.2347,2.375986 c 3.703952,0.3167918 6.577473,0.9678355 7.376654,1.671303 0.341211,0.3003457 0.36705,0.6104167 0.0733,0.8795586 -0.781033,0.7155952 -3.476894,1.3526983 -7.13745,1.6867675 -2.143225,0.1955951 -2.62272,0.2127402 -6.25,0.22348 -1.952009,0.00578 -3.679687,0.00359 -3.839285,-0.00485 z"
       id="path907"
       inkscape:connector-curvature="0"
       transform="matrix(0.26458333,0,0,0.26458333,0,291.17912)" />
    <path
       style="opacity:0.36460021;fill:#000000;fill-opacity:1;stroke-width:0.04464286"
       d="M 11.832915,6.7858473 C 11.722423,6.7777589 11.210147,6.7406826 10.694522,6.7034553 6.3006538,6.3862263 3.1288512,5.7098746 2.2458609,4.9018721 2.0747084,4.7452547 2.0561288,4.7079123 2.0561288,4.5205374 c 0,-0.188321 0.019275,-0.226449 0.2064398,-0.408352 C 4.0491979,2.3757805 15.984887,1.5549639 24.221307,2.6020843 c 2.845301,0.3617315 4.882675,0.9374166 5.444954,1.538539 0.38673,0.4134449 0.232313,0.7373707 -0.536592,1.1256339 -1.385863,0.6997995 -5.12037,1.326112 -8.970862,1.504499 -0.839229,0.03888 -7.82789,0.051547 -8.325892,0.015091 z"
       id="path909"
       inkscape:connector-curvature="0"
       transform="matrix(0.26458333,0,0,0.26458333,0,291.17912)" />
    <path
       style="opacity:0.36460021;fill:#000000;fill-opacity:1;stroke-width:0.04464286"
       d="M 12.212379,6.7849826 C 11.164844,6.7556906 9.0926659,6.5758125 7.6415502,6.3882051 4.2214954,5.9460442 2.0561288,5.220193 2.0561288,4.5159194 c 0,-0.1212418 0.040754,-0.2013319 0.1784779,-0.3507445 C 3.8219528,2.4431077 15.397574,1.5781605 23.752557,2.5573225 c 3.429399,0.4019082 5.710366,1.0736115 6.04574,1.7803601 0.09866,0.2079066 0.06195,0.3731464 -0.121463,0.546787 -0.816698,0.7731763 -3.588832,1.3981076 -7.888562,1.7783442 -1.244014,0.1100116 -7.264036,0.1868147 -9.575893,0.1221688 z"
       id="path911"
       inkscape:connector-curvature="0"
       transform="matrix(0.26458333,0,0,0.26458333,0,291.17912)" />
    <path
       style="opacity:0.36460021;fill:#000000;fill-opacity:1;stroke-width:0.04464286"
       d="M 12.257022,6.7715294 C 11.160681,6.7371491 10.651053,6.7006013 9.0873788,6.5442181 5.1825388,6.1536947 2.4666429,5.4349019 2.1157637,4.6991006 2.0167965,4.4915644 2.0671574,4.3330557 2.3042347,4.1058956 3.2613182,3.1888484 7.3317132,2.4580963 12.814429,2.2190157 c 1.335685,-0.058244 5.163524,-0.058376 6.473843,-2.226e-4 5.9138,0.2624604 10.081255,1.1254462 10.522252,2.178921 0.05523,0.1319336 0.05322,0.1668435 -0.01798,0.3125 -0.09813,0.2007306 -0.49053,0.4736331 -0.965103,0.6711985 -1.536862,0.6397972 -5.170021,1.2188133 -8.423093,1.3423878 -1.537774,0.058415 -6.819795,0.089359 -8.147321,0.047729 z"
       id="path913"
       inkscape:connector-curvature="0"
       transform="matrix(0.26458333,0,0,0.26458333,0,291.17912)" />
  </g>
</svg>
