<?xml version="1.0" encoding="UTF-8" standalone="no"?>
<!-- Created with Inkscape (http://www.inkscape.org/) -->

<svg
   xmlns:dc="http://purl.org/dc/elements/1.1/"
   xmlns:cc="http://creativecommons.org/ns#"
   xmlns:rdf="http://www.w3.org/1999/02/22-rdf-syntax-ns#"
   xmlns:svg="http://www.w3.org/2000/svg"
   xmlns="http://www.w3.org/2000/svg"
   xmlns:sodipodi="http://sodipodi.sourceforge.net/DTD/sodipodi-0.dtd"
   xmlns:inkscape="http://www.inkscape.org/namespaces/inkscape"
   width="21"
   height="20"
   viewBox="0 0 5.5562502 5.291667"
   version="1.1"
   id="svg8"
   sodipodi:docname="searchButton.svg"
   inkscape:version="0.92.5 (2060ec1f9f, 2020-04-08)">
  <defs
     id="defs2" />
  <sodipodi:namedview
     id="base"
     pagecolor="#ffffff"
     bordercolor="#666666"
     borderopacity="1.0"
     inkscape:pageopacity="0.0"
     inkscape:pageshadow="2"
     inkscape:zoom="31.678384"
     inkscape:cx="21.250356"
     inkscape:cy="12.385612"
     inkscape:document-units="mm"
     inkscape:current-layer="layer1"
     showgrid="true"
     units="px"
     inkscape:window-width="1920"
     inkscape:window-height="1016"
     inkscape:window-x="0"
     inkscape:window-y="626"
     inkscape:window-maximized="1">
    <inkscape:grid
       type="xygrid"
       id="grid815" />
  </sodipodi:namedview>
  <metadata
     id="metadata5">
    <rdf:RDF>
      <cc:Work
         rdf:about="">
        <dc:format>image/svg+xml</dc:format>
        <dc:type
           rdf:resource="http://purl.org/dc/dcmitype/StillImage" />
        <dc:title></dc:title>
      </cc:Work>
    </rdf:RDF>
  </metadata>
  <g
     inkscape:label="Layer 1"
     inkscape:groupmode="layer"
     id="layer1"
     transform="translate(0,-291.70828)">
    <circle
       style="opacity:0.36460021;fill:#000000;fill-opacity:1;stroke-width:0.26458332"
       id="path817"
       cx="1.9843751"
       cy="293.51584"
       r="1.7197917" />
    <ellipse
       style="opacity:0.36460021;fill:#ffffff;fill-opacity:1;stroke-width:0.22414663"
       id="path817-3"
       cx="1.9914623"
       cy="293.53357"
       rx="1.4481213"
       ry="1.4658389" />
    <path
       style="fill:none;stroke:#000000;stroke-width:0.19951139px;stroke-linecap:butt;stroke-linejoin:miter;stroke-opacity:1"
       d="m 2.9104167,294.61871 0.1985607,-0.20046 2.1841668,2.20514 -0.1985606,0.20046 z"
       id="path842"
       inkscape:connector-curvature="0" />
    <path
       style="opacity:0.36460021;fill:#000000;fill-opacity:1;stroke-width:0.01181176"
       d=""
       id="path850"
       inkscape:connector-curvature="0" />
    <path
       style="opacity:0.36460021;fill:#000000;fill-opacity:1;stroke-width:0.01181176"
       d="m 3.1372642,294.71092 -0.031788,-0.0332 0.032531,-0.031 0.032531,-0.031 0.037285,0.0335 0.037285,0.0335 -0.032025,0.0307 c -0.017613,0.0169 -0.034726,0.0307 -0.038028,0.0307 -0.0033,0 -0.020307,-0.0149 -0.037791,-0.0332 z"
       id="path862"
       inkscape:connector-curvature="0" />
    <path
       style="opacity:0.36460021;fill:#000000;fill-opacity:1;stroke-width:0.01181176"
       d="m 3.1344768,294.70797 c -0.023678,-0.0262 -0.016441,-0.0509 0.021958,-0.0752 0.015624,-0.01 0.026572,-0.006 0.052363,0.0206 l 0.03261,0.033 -0.027885,0.0229 c -0.035461,0.0292 -0.05166,0.0289 -0.079047,-10e-4 z"
       id="path864"
       inkscape:connector-curvature="0" />
    <path
       style="opacity:0.36460021;fill:#000000;fill-opacity:1;stroke-width:0.01181176"
       d="m 3.148501,294.71041 c -0.024146,-0.0267 -0.024148,-0.0359 -3.07e-5,-0.0625 0.018537,-0.0205 0.020569,-0.0204 0.053153,0.003 0.042169,0.03 0.042173,0.0362 3.07e-5,0.061 -0.032024,0.0189 -0.034889,0.0188 -0.053153,-10e-4 z"
       id="path866"
       inkscape:connector-curvature="0" />
    <path
       style="opacity:0.36460021;fill:#000000;fill-opacity:1;stroke-width:0.01181176"
       d="m 3.1424257,294.6995 c -0.013028,-0.0243 0.00324,-0.0617 0.026868,-0.0617 0.00842,0 0.025355,0.0111 0.037644,0.0247 0.021926,0.0242 0.021918,0.025 -4.234e-4,0.0413 -0.03053,0.0223 -0.050547,0.021 -0.064086,-0.004 z"
       id="path876"
       inkscape:connector-curvature="0" />
    <path
       style="opacity:0.36460021;fill:#000000;fill-opacity:1;stroke-width:0.01181176"
       d="m 3.1488831,294.7126 c -0.00433,-0.004 -0.00787,-0.0204 -0.00787,-0.0358 0,-0.0393 0.032117,-0.0476 0.062995,-0.0163 0.025202,0.0256 0.025241,0.0262 0.00266,0.043 -0.024773,0.0184 -0.045288,0.0217 -0.057785,0.009 z"
       id="path878"
       inkscape:connector-curvature="0" />
    <path
       style="opacity:0.36460021;fill:#000000;fill-opacity:1;stroke-width:0.01181176"
       d="m 3.1488831,294.7126 c -0.00433,-0.004 -0.00787,-0.0204 -0.00787,-0.0358 0,-0.0393 0.032117,-0.0476 0.062995,-0.0163 0.025202,0.0256 0.025241,0.0262 0.00266,0.043 -0.024773,0.0184 -0.045288,0.0217 -0.057785,0.009 z"
       id="path880"
       inkscape:connector-curvature="0" />
    <path
       style="opacity:0.36460021;fill:#000000;fill-opacity:1;stroke-width:0.01181176"
       d="m 3.1488831,294.7126 c -0.00433,-0.004 -0.00787,-0.0204 -0.00787,-0.0358 0,-0.0393 0.032117,-0.0476 0.062995,-0.0163 0.025202,0.0256 0.025241,0.0262 0.00266,0.043 -0.024773,0.0184 -0.045288,0.0217 -0.057785,0.009 z"
       id="path882"
       inkscape:connector-curvature="0" />
    <path
       style="opacity:0.36460021;fill:#000000;fill-opacity:1;stroke-width:0.00295294"
       d="m 3.0802972,294.64774 c -0.014176,-0.0143 -0.025776,-0.0272 -0.025776,-0.0288 0,-0.002 0.012316,-0.0152 0.027372,-0.0302 l 0.027371,-0.0273 0.027613,0.0277 c 0.015187,0.0152 0.027121,0.0289 0.02652,0.0303 -0.00127,0.003 -0.054234,0.0542 -0.056086,0.0542 -6.879e-4,0 -0.012835,-0.0116 -0.027013,-0.0259 z"
       id="path903"
       inkscape:connector-curvature="0" />
    <path
       style="opacity:0.36460021;fill:#000000;fill-opacity:1;stroke-width:0.00295294"
       d="m 3.0787893,294.64509 -0.024455,-0.0256 0.011139,-0.012 c 0.030612,-0.0331 0.04083,-0.043 0.044117,-0.043 0.00353,0 0.048781,0.0476 0.050787,0.0534 0.00198,0.006 -0.046676,0.0529 -0.05474,0.053 -0.00132,1e-5 -0.013396,-0.0115 -0.026847,-0.0256 z"
       id="path905"
       inkscape:connector-curvature="0" />
    <path
       style="opacity:0.36460021;fill:#000000;fill-opacity:1;stroke-width:0.00295294"
       d="m 3.0816037,294.64609 c -0.013272,-0.0133 -0.02413,-0.0256 -0.02413,-0.0272 0,-0.002 0.011689,-0.0146 0.025977,-0.0288 l 0.025977,-0.0259 0.024225,0.0248 c 0.013324,0.0137 0.024225,0.0272 0.024225,0.03 0,0.005 -0.036794,0.0431 -0.047014,0.0485 -0.00415,0.002 -0.00974,-0.002 -0.029256,-0.0215 z"
       id="path907"
       inkscape:connector-curvature="0" />
    <path
       style="opacity:0.36460021;fill:#000000;fill-opacity:1;stroke-width:0.00295294"
       d="m 3.0804424,294.64416 -0.023561,-0.0236 0.00893,-0.0111 c 0.00491,-0.006 0.016793,-0.0189 0.026408,-0.0283 l 0.017481,-0.0172 0.021267,0.0228 c 0.031578,0.0338 0.031333,0.0304 0.00408,0.0576 -0.012838,0.0128 -0.025072,0.0233 -0.027189,0.0233 -0.00212,0 -0.014452,-0.0106 -0.02741,-0.0236 z"
       id="path909"
       inkscape:connector-curvature="0" />
    <path
       style="opacity:0.36460021;fill:#000000;fill-opacity:1;stroke-width:0.00295294"
       d="m 3.0810129,294.64384 -0.023664,-0.0239 0.014576,-0.0167 c 0.00802,-0.009 0.019812,-0.0218 0.026212,-0.028 l 0.011636,-0.0113 0.018505,0.0201 c 0.023572,0.0256 0.027563,0.0318 0.025292,0.0389 -0.00204,0.006 -0.041374,0.0447 -0.04597,0.0447 -0.00161,0 -0.013568,-0.0108 -0.026584,-0.0239 z"
       id="path911"
       inkscape:connector-curvature="0" />
    <path
       style="opacity:0.36460021;fill:#000000;fill-opacity:1;stroke-width:0.00295294"
       d="m 3.1343539,294.69154 c -0.00431,-0.008 -0.0038,-0.0168 0.00159,-0.0272 0.00588,-0.0114 0.00794,-0.01 0.00416,0.004 -0.00159,0.006 -0.00209,0.0145 -0.00108,0.0197 0.00201,0.0108 -4.66e-5,0.0125 -0.00465,0.004 z"
       id="path913"
       inkscape:connector-curvature="0" />
    <path
       style="opacity:0.36460021;fill:#000000;fill-opacity:1;stroke-width:0.00295294"
       d="m 3.1333199,294.70077 c -0.018219,-0.0187 -0.01392,-0.0383 0.013076,-0.0596 0.01478,-0.0117 0.029522,-0.0155 0.033699,-0.009 0.00122,0.002 -7.144e-4,0.002 -0.00545,0.001 -0.00946,-0.002 -0.019105,0.004 -0.032741,0.0215 -0.013176,0.0169 -0.014023,0.0297 -0.00292,0.0443 0.010671,0.014 0.00742,0.0148 -0.00566,0.001 z"
       id="path915"
       inkscape:connector-curvature="0" />
    <path
       style="opacity:0.36460021;fill:#000000;fill-opacity:1;stroke-width:0.00295294"
       d="m 3.1200609,294.67806 c 6.03e-5,-0.005 7.143e-4,-0.007 0.00148,-0.004 7.409e-4,0.003 6.879e-4,0.007 -1.095e-4,0.009 -8.202e-4,0.002 -0.00143,-3.4e-4 -0.00135,-0.005 z"
       id="path917"
       inkscape:connector-curvature="0" />
    <path
       style="opacity:0.36460021;fill:#000000;fill-opacity:1;stroke-width:0.00295294"
       d="m 3.1064769,294.67408 c -9.525e-4,-0.002 4.498e-4,-0.004 0.00311,-0.005 0.00653,-0.003 0.00805,-4e-4 0.00285,0.004 -0.00254,0.002 -0.00493,0.002 -0.00596,7.5e-4 z"
       id="path919"
       inkscape:connector-curvature="0" />
    <path
       style="opacity:0.36460021;fill:#000000;fill-opacity:1;stroke-width:0.00295294"
       d="m 4.1395854,295.7158 c -0.5245124,-0.52958 -0.9539978,-0.96379 -0.9544119,-0.96491 -4.233e-4,-0.001 0.011652,-0.0144 0.026815,-0.0295 l 0.027568,-0.0274 0.9557726,0.965 0.9557726,0.965 -0.027254,0.0274 c -0.014989,0.015 -0.028007,0.0274 -0.028928,0.0274 -9.261e-4,0 -0.4308216,-0.4333 -0.9553342,-0.96288 z"
       id="path921"
       inkscape:connector-curvature="0" />
    <path
       style="opacity:0.36460021;fill:#000000;fill-opacity:1;stroke-width:0.00295294"
       d="M 4.4833654,296.06078 C 4.14822,295.72255 3.7524552,295.32291 3.6038882,295.17268 3.455321,295.02245 3.3005241,294.86597 3.2598947,294.82494 l -0.073871,-0.0746 0.027268,-0.0273 0.027268,-0.0273 0.032074,0.0325 c 0.01764,0.0179 0.447028,0.4515 0.9541941,0.96366 l 0.92212,0.93119 -0.026173,0.0263 c -0.014396,0.0145 -0.027046,0.0263 -0.028114,0.0263 -0.00106,0 -0.2761498,-0.27672 -0.6112954,-0.61495 z"
       id="path923"
       inkscape:connector-curvature="0" />
    <path
       style="opacity:0.36460021;fill:#000000;fill-opacity:1;stroke-width:0.00295294"
       d="M 4.7239229,296.30144 C 4.5211034,296.09721 4.2169919,295.79056 4.0481194,295.62 3.8792473,295.44945 3.6162575,295.18394 3.4636982,295.02998 l -0.2773809,-0.27992 0.026427,-0.0264 0.026424,-0.0264 0.1478775,0.14841 c 0.081333,0.0816 0.4181623,0.42148 0.7485102,0.75524 0.3303481,0.33375 0.6934657,0.70051 0.8069281,0.81501 l 0.2062951,0.20818 -0.025776,0.0244 c -0.014176,0.0134 -0.026798,0.0244 -0.028047,0.0244 -0.00124,0 -0.1682128,-0.1671 -0.3710326,-0.37133 z"
       id="path925"
       inkscape:connector-curvature="0" />
  </g>
</svg>
